{
	"asset":{
		"generator":"Khronos glTF Blender I/O v4.1.63",
		"version":"2.0"
	},
	"scene":0,
	"scenes":[
		{
			"name":"Scene",
			"nodes":[
				0,
				1
			]
		}
	],
	"nodes":[
		{
			"mesh":0,
			"name":"B\u00e9zierCircle",
			"scale":[
				1.5,
				1,
				0.6666666865348816
			]
		},
		{
			"name":"B\u00e9zierCircle.001",
			"scale":[
				9.481956481933594,
				9.481956481933594,
				9.481956481933594
			]
		}
	],
	"meshes":[
		{
			"name":"B\u00e9zierCircle",
			"primitives":[
				{
					"attributes":{
						"POSITION":0,
						"NORMAL":1,
						"TEXCOORD_0":2
					},
					"indices":3
				}
			]
		}
	],
	"accessors":[
		{
			"bufferView":0,
			"componentType":5126,
			"count":933,
			"max":[
				0.004999999888241291,
				0.0029887331183999777,
				0.007499999832361937
			],
			"min":[
				-0.005000000353902578,
				-0.0030020452104508877,
				-0.007499999832361937
			],
			"type":"VEC3"
		},
		{
			"bufferView":1,
			"componentType":5126,
			"count":933,
			"type":"VEC3"
		},
		{
			"bufferView":2,
			"componentType":5126,
			"count":933,
			"type":"VEC2"
		},
		{
			"bufferView":3,
			"componentType":5123,
			"count":3492,
			"type":"SCALAR"
		}
	],
	"bufferViews":[
		{
			"buffer":0,
			"byteLength":11196,
			"byteOffset":0,
			"target":34962
		},
		{
			"buffer":0,
			"byteLength":11196,
			"byteOffset":11196,
			"target":34962
		},
		{
			"buffer":0,
			"byteLength":7464,
			"byteOffset":22392,
			"target":34962
		},
		{
			"buffer":0,
			"byteLength":6984,
			"byteOffset":29856,
			"target":34963
		}
	],
	"buffers":[
		{
			"byteLength":36840,
			"uri":"CubanF.bin"
		}
	]
}

